<?xml version="1.0" encoding="utf-8"?>
<!-- Generator: Adobe Illustrator 27.1.1, SVG Export Plug-In . SVG Version: 6.00 Build 0)  -->
<svg version="1.1" id="Слой_1" xmlns="http://www.w3.org/2000/svg" xmlns:xlink="http://www.w3.org/1999/xlink" x="0px" y="0px"
	 viewBox="0 0 111.64 117.97" style="enable-background:new 0 0 111.64 117.97;" xml:space="preserve">
<style type="text/css">
	.st0{fill:#FFE6E1;}
	.st1{fill:#EE938B;}
	.st2{fill:#D16363;}
	.st3{fill:#521F4D;}
	.st4{fill:#FFB647;}
	.st5{fill:#FFFFFF;}
</style>
<g>
	<circle class="st0" cx="55.82" cy="62.15" r="55.82"/>
	<g>
		<rect x="41.05" y="54.8" class="st1" width="29.53" height="33.36"/>
		<g>
			<path class="st1" d="M84.74,31.38c-1.63-3.9-4.96-1.98-4.96-1.98C81.71,11.69,72.7,0,55.82,0S29.93,11.69,31.85,29.4
				c0,0-3.33-1.91-4.96,1.98s1.35,13.03,3.19,15.94c1.84,2.9,5.1,5.1,5.1,5.1s0.21,3.26,1.06,5.52
				c0.85,2.27,10.48,12.69,13.31,14.28c3.71,2.19,9.19,2.19,12.52,0c2.83-1.59,12.47-12.01,13.31-14.28
				c0.85-2.27,1.06-5.52,1.06-5.52s3.26-2.2,5.1-5.1C83.4,44.41,86.37,35.28,84.74,31.38z"/>
			<g>
				<path class="st2" d="M55.97,74.22c-2.32,0-4.69-0.56-6.6-1.68c-1.71-0.96-5.66-4.91-8.59-8.17l0.56-0.5
					c2.99,3.32,6.84,7.14,8.41,8.02c3.59,2.11,8.92,2.12,12.13,0.01c1.6-0.9,5.45-4.72,8.43-8.03l0.56,0.5
					c-2.94,3.26-6.88,7.2-8.6,8.17C60.56,73.66,58.29,74.22,55.97,74.22z"/>
				
					<rect x="34.34" y="44.79" transform="matrix(0.9925 -0.1224 0.1224 0.9925 -5.6882 4.6133)" class="st2" width="0.75" height="7.65"/>
				
					<rect x="73.09" y="48.24" transform="matrix(0.1106 -0.9939 0.9939 0.1106 20.0885 119.6807)" class="st2" width="7.64" height="0.75"/>
				<g>
					<path class="st2" d="M29.07,40.14c-0.16-0.57-1.48-5.65,0.35-7.04c0.61-0.39,1.1-0.35,1.41-0.25c0.93,0.3,1.4,1.46,1.45,1.59
						l-0.7,0.27c-0.1-0.26-0.48-0.98-0.98-1.14c-0.23-0.08-0.48-0.02-0.75,0.15c-1.05,0.8-0.6,4.25-0.06,6.23L29.07,40.14z"/>
					<path class="st2" d="M82.57,40.14l-0.72-0.2c0.54-1.98,1-5.43-0.08-6.24c-0.25-0.16-0.5-0.21-0.73-0.14
						c-0.6,0.2-0.98,1.13-0.98,1.14l-0.7-0.27c0.05-0.13,0.52-1.28,1.45-1.59c0.31-0.1,0.81-0.14,1.39,0.24
						C84.05,34.49,82.72,39.56,82.57,40.14z"/>
				</g>
			</g>
			<g>
				<path class="st3" d="M34.25,38.71c5.01,0.03,1.22-16.14,5.15-20.06c2-1.99,4.91-1.66,7.41-1.03c2.91,0.74,5.92,1.75,8.99,1.83
					c3.25,0.09,6.34-1.11,9.46-1.86c2.42-0.59,5.05-0.85,6.97,1.06c3.93,3.91,0.14,20.08,5.15,20.06c-0.35-3.74-0.36-7.83,2.39-9.31
					l0,0C81.71,11.69,72.7,0,55.82,0C38.94,0,29.93,11.69,31.85,29.4v0C34.09,30.85,34.6,34.8,34.25,38.71z"/>
			</g>
		</g>
		<path class="st4" d="M103.53,91.14c-15.76-7.03-32.94-9.52-32.94-9.52c-7.88,8.22-22.57,8.33-29.53,0c0,0-17.18,2.49-32.94,9.52
			c9.8,16.08,27.5,26.83,47.71,26.83C76.03,117.97,93.73,107.23,103.53,91.14z"/>
		<polygon class="st5" points="37.06,82.19 41.05,75.03 53.97,86.63 46.07,95.29 		"/>
		<polygon class="st5" points="74.56,82.19 70.57,75.03 57.65,86.63 65.56,95.29 		"/>
	</g>
</g>
</svg>
