<?xml version="1.0" encoding="utf-8"?>
<!-- Generator: Adobe Illustrator 27.1.1, SVG Export Plug-In . SVG Version: 6.00 Build 0)  -->
<svg version="1.1" xmlns="http://www.w3.org/2000/svg" xmlns:xlink="http://www.w3.org/1999/xlink" x="0px" y="0px"
	 viewBox="0 0 111.64 117.14" style="enable-background:new 0 0 111.64 117.14;" xml:space="preserve">
<style type="text/css">
	.st0{fill:#FFFFFF;}
	.st1{fill:#FCE8E3;}
	.st2{fill:#E2988F;}
	.st3{fill:#C46966;}
	.st4{fill:#4C224B;}
	.st5{fill:#F4BA5D;}
	.st6{fill:#94A5E4;}
	.st7{fill:#6C82BC;}
	.st8{fill:#D85D63;}
	.st9{fill:#703870;}
	.st10{fill:#EABFB9;}
	.st11{fill:#B73D49;}
</style>
<g id="BACKGROUND">
	<rect x="-350.93" y="-31.69" class="st0" width="500" height="500"/>
</g>
<g id="OBJECTS">
	<g>
		<circle class="st1" cx="55.82" cy="61.32" r="55.82"/>
		<g>
			<ellipse class="st6" cx="55.65" cy="74.19" rx="16.66" ry="2.36"/>
			<rect x="41.05" y="53.97" class="st2" width="29.53" height="33.36"/>
			<g>
				<path class="st2" d="M85.64,32.35c-1.68-4.02-5.11-2.04-5.11-2.04C82.51,12.05,73.22,0,55.82,0c-17.4,0-26.69,12.05-24.71,30.31
					c0,0-3.43-1.97-5.11,2.04c-1.68,4.02,1.39,13.43,3.29,16.43c1.9,2.99,5.26,5.26,5.26,5.26s0.22,3.36,1.1,5.7
					c0.88,2.34,10.81,13.08,13.73,14.72c3.83,2.25,9.47,2.25,12.91,0C65.19,72.81,75.12,62.07,76,59.73c0.88-2.34,1.1-5.7,1.1-5.7
					s3.36-2.26,5.26-5.26C84.25,45.78,87.32,36.37,85.64,32.35z"/>
				<g>
					<g>
						<path class="st3" d="M28.26,41.37c-0.16-0.59-1.53-5.82,0.35-7.24c0.62-0.4,1.13-0.36,1.45-0.26
							c0.97,0.32,1.46,1.57,1.49,1.63l-0.7,0.27c-0.11-0.27-0.49-1.02-1.02-1.18c-0.24-0.08-0.5-0.03-0.78,0.16
							c-1.09,0.83-0.62,4.39-0.06,6.43L28.26,41.37z"/>
						<path class="st3" d="M83.38,41.37l-0.72-0.2c0.4-1.47,1.17-5.5-0.08-6.45c-0.26-0.17-0.52-0.22-0.76-0.14
							c-0.52,0.17-0.91,0.91-1.02,1.18l-0.7-0.27c0.02-0.05,0.51-1.31,1.49-1.63c0.32-0.1,0.83-0.15,1.42,0.24
							C84.91,35.56,83.54,40.78,83.38,41.37z"/>
					</g>
				</g>
				<path class="st4" d="M55.82,0C38.41,0,29.13,12.05,31.11,30.31l0,0c2.3,1.5,2.83,5.57,2.47,9.6l0,0c0,0-0.77,12.83,1.76,18.89
					c2.52,6.05,6.92,15.51,20.48,15.4v0c0,0,0,0,0,0c0,0,0,0,0,0v0c13.56,0.12,17.96-9.34,20.48-15.4
					c2.52-6.05,1.76-18.89,1.76-18.89v0c0,0,0,0,0,0c-0.36-3.85-0.37-8.08,2.47-9.6l0,0C82.51,12.05,73.22,0,55.82,0z M74.87,28.05
					c0,0-0.34,16.75-2.92,20.42c-2.59,3.67-1.78-4.47-16.12-4.61c-14.34-0.14-13.54,8.28-16.13,4.61
					c-2.58-3.66-2.92-20.35-2.92-20.42c0.17-3.7,0.53-7.24,2.12-8.82c2.06-2.05,5.07-1.72,7.64-1.06c3,0.77,6.1,1.8,9.27,1.88
					c3.35,0.09,6.54-1.14,9.75-1.92c2.5-0.6,5.21-0.87,7.19,1.1c1.59,1.59,1.95,5.12,2.12,8.83L74.87,28.05z"/>
			</g>
			<g>
				<path class="st6" d="M106.33,85.09c-13.99-3.39-34.03-4.3-34.03-4.3c-10.34,8.22-24.17,8.33-33.32,0c0,0-19.67,1.28-33.55,4.58
					c8.98,18.79,28.17,31.77,50.38,31.77h0C78.15,117.14,97.4,104.03,106.33,85.09z"/>
			</g>
			<path class="st6" d="M38.99,74.19v8.35c11.82,8.72,22.94,8.84,33.32,0v-8.35C66.42,78,42.75,77.48,38.99,74.19z"/>
			<path class="st7" d="M55.25,85.91c-1.62,0-3.23-0.07-4.79-0.21c-3.09-0.27-10.43-1.26-11.82-4.55l0.69-0.29
				c0.85,2.02,5.04,3.55,11.2,4.09c8.54,0.75,19.17-0.62,21.46-4.15l0.63,0.41C70.57,84.36,62.9,85.91,55.25,85.91z"/>
			<path class="st7" d="M55.31,78.96c-3.03,0-5.98-0.14-8.39-0.4c-4.24-0.45-6.77-1.19-7.53-2.21l0.6-0.45
				c0.28,0.38,1.54,1.33,7.01,1.91c8.68,0.92,21.89,0.18,24.35-1.97l0.49,0.56C69.79,78.21,62.33,78.96,55.31,78.96z"/>
		</g>
	</g>
</g>
</svg>
