<?xml version="1.0" encoding="utf-8"?>
<!-- Generator: Adobe Illustrator 27.1.1, SVG Export Plug-In . SVG Version: 6.00 Build 0)  -->
<svg version="1.1" xmlns="http://www.w3.org/2000/svg" xmlns:xlink="http://www.w3.org/1999/xlink" x="0px" y="0px"
	 viewBox="0 0 111.64 114.22" style="enable-background:new 0 0 111.64 114.22;" xml:space="preserve">
<style type="text/css">
	.st0{fill:#FFFFFF;}
	.st1{fill:#FCE8E3;}
	.st2{fill:#E2988F;}
	.st3{fill:#C46966;}
	.st4{fill:#4C224B;}
	.st5{fill:#F4BA5D;}
	.st6{fill:#94A5E4;}
	.st7{fill:#6C82BC;}
	.st8{fill:#D85D63;}
	.st9{fill:#703870;}
	.st10{fill:#EABFB9;}
	.st11{fill:#B73D49;}
</style>
<g id="BACKGROUND">
	<rect x="-194.2" y="-34.61" class="st0" width="500" height="500"/>
</g>
<g id="OBJECTS">
	<g>
		<circle class="st1" cx="55.82" cy="58.4" r="55.82"/>
		<g>
			<path class="st4" d="M88.32,53.92c3.95-22.98-5.52-52.2-31.54-53.86c-8.3-0.53-16.41,2.52-20.6,8.41
				c-14.36,5.66-15.57,30.88-13.96,39.56c4.4,23.8-16.81,19.7-11.43,42.04l44.33-2.44h1.7l43.54,0.56
				C104.04,71.33,86.54,72.46,88.32,53.92z"/>
			<rect x="42.72" y="51.05" class="st2" width="26.15" height="33.36"/>
			<g>
				<path class="st8" d="M103.79,86.93c-12.31-5.17-34.76-9.07-34.76-9.07c-8.62,7.26-19.52,7.21-26.3,0c0,0-22.74,3.37-35.57,7.86
					c9.17,16.29,26.27,27.52,46.08,28.42c0.89,0.03,1.77,0.06,2.67,0.06C76.27,114.19,94.07,103.25,103.79,86.93z"/>
			</g>
			<g>
				<path class="st0" d="M78.94,47.02c-0.97,0-1.76,1.41-1.76,3.14s0.79,3.14,1.76,3.14s1.76-1.41,1.76-3.14
					S79.92,47.02,78.94,47.02z M78.94,51.92c-0.67,0-1.21-0.97-1.21-2.16c0-1.19,0.54-2.16,1.21-2.16c0.67,0,1.21,0.97,1.21,2.16
					C80.16,50.96,79.61,51.92,78.94,51.92z"/>
				<path class="st0" d="M30.8,50.16c0,1.73,0.79,3.14,1.76,3.14c0.97,0,1.76-1.41,1.76-3.14s-0.79-3.14-1.76-3.14
					C31.59,47.02,30.8,48.42,30.8,50.16z M31.35,49.76c0-1.19,0.54-2.16,1.21-2.16c0.67,0,1.21,0.97,1.21,2.16
					c0,1.19-0.54,2.16-1.21,2.16C31.9,51.92,31.35,50.96,31.35,49.76z"/>
				<g>
					<path class="st2" d="M55.77,10.65L55.77,10.65L55.77,10.65L55.77,10.65L55.77,10.65C38.91,10.67,35.08,23.3,35.43,36.01
						c0,9.16-0.06,15.92,0.79,18.18c0.85,2.26,6.76,15.89,19.54,15.92l0,0l0,0l0,0l0,0c12.78-0.02,18.69-13.65,19.54-15.92
						c0.85-2.27,0.8-9.02,0.79-18.18C76.46,23.3,72.62,10.67,55.77,10.65z"/>
				</g>
				<g>
					<path class="st3" d="M55.77,70.48c-5.01-0.01-9.53-2.05-13.44-6.05l0.54-0.52c3.76,3.86,8.1,5.82,12.9,5.83
						c4.72-0.01,9-1.91,12.72-5.64l0.53,0.53C65.15,68.5,60.7,70.47,55.77,70.48z"/>
				</g>
				<path class="st2" d="M36.17,35.57c0,0-3.39-4.99-6.87-2.07c-3.48,2.92-0.09,19.48,6.87,16.56
					C43.13,47.15,36.17,35.57,36.17,35.57z"/>
				<path class="st2" d="M75.43,35.57c0,0,3.39-4.99,6.87-2.07c3.48,2.92,0.09,19.48-6.87,16.56
					C68.46,47.15,75.43,35.57,75.43,35.57z"/>
				
					<rect x="35.06" y="44.89" transform="matrix(0.9973 -0.074 0.074 0.9973 -3.4235 2.7521)" class="st3" width="0.75" height="5.37"/>
				
					<rect x="73.18" y="46.91" transform="matrix(0.0743 -0.9972 0.9972 0.0743 23.3428 119.713)" class="st3" width="5.94" height="0.75"/>
				<path class="st3" d="M31.03,42.07c-0.8-2.66-0.81-4.51-0.02-5.49c0.58-0.73,1.39-0.69,1.42-0.69l-0.05,0.75l0.02-0.37
					l-0.02,0.37c-0.02,0-0.46-0.02-0.8,0.42c-0.34,0.44-0.78,1.66,0.16,4.8L31.03,42.07z"/>
				<path class="st3" d="M80.85,42.07l-0.72-0.22c0.94-3.14,0.51-4.35,0.16-4.8c-0.34-0.44-0.78-0.42-0.8-0.42l-0.04-0.75
					c0.03,0,0.83-0.05,1.42,0.69C81.65,37.57,81.65,39.41,80.85,42.07z"/>
				<path class="st0" d="M34.05,50.98c-0.12,0-0.25-0.02-0.36-0.04c-0.03-0.01-0.06-0.03-0.08-0.05c-0.21,0.62-0.59,1.04-1.03,1.04
					c-0.67,0-1.21-0.97-1.21-2.16c0-1.19,0.54-2.15,1.2-2.16c0.4-0.05,0.3-0.6,0-0.58c-0.97,0.01-1.76,1.41-1.76,3.14
					c0,1.73,0.79,3.14,1.76,3.14c0.81,0,1.49-0.99,1.7-2.32C34.19,50.98,34.12,50.98,34.05,50.98z"/>
				<path class="st0" d="M78.95,47.02c-0.3-0.01-0.4,0.54,0,0.58c0.67,0.01,1.2,0.97,1.2,2.16c0,1.19-0.54,2.16-1.21,2.16
					c-0.37,0-0.7-0.31-0.92-0.79c-0.06,0.05-0.12,0.1-0.19,0.15c-0.15,0.09-0.3,0.18-0.46,0.27c0.29,1.03,0.88,1.75,1.57,1.75
					c0.97,0,1.76-1.41,1.76-3.14C80.71,48.43,79.92,47.03,78.95,47.02z"/>
				<path class="st4" d="M35.32,34.55c-0.16-8.93,6.51-13.57,6.51-13.57c6,10.52,22.54,14.09,37.65,8.87c0,0-1.47-25.27-25.07-23.79
					C30.8,7.55,35.32,34.55,35.32,34.55z"/>
			</g>
		</g>
	</g>
</g>
</svg>
